<svg height="641.872" viewBox="0 0 662.553 641.872" width="662.553" xmlns="http://www.w3.org/2000/svg" xmlns:xlink="http://www.w3.org/1999/xlink"><linearGradient id="a" gradientUnits="userSpaceOnUse" x1="530.778" x2="275.984" y1="346.083" y2="346.083"><stop offset=".155" stop-color="#ff593b"/><stop offset=".337" stop-color="#fc583b"/><stop offset=".459" stop-color="#f3573d"/><stop offset=".563" stop-color="#e4543f"/><stop offset=".657" stop-color="#cf5042"/><stop offset=".745" stop-color="#b34b46"/><stop offset=".827" stop-color="#91444b"/><stop offset=".906" stop-color="#693d51"/><stop offset=".98" stop-color="#3b3458"/><stop offset=".995" stop-color="#313259"/></linearGradient><path d="m535.704 341.584s103.225-19.271 103.225-145.244-83.415-181.188-284.313-181.188h-280.657c-30.086 0-54.476 24.263-54.476 54.194v502.67c0 29.931 24.39 54.194 54.476 54.194h147.549c30.086 0 54.476-24.263 54.476-54.194v-149.658c95.171 0 112.033 14.247 112.033 67.798v81.86c0 29.931 24.39 54.194 54.476 54.194h147.439c30.086 0 54.476-24.263 54.476-54.194v-89.006c0-124.227-108.704-141.426-108.704-141.426zm-259.72-71.784v-89.671c90.911 0 117.57 11.102 117.57 43.067s-24.34 46.603-117.57 46.603z" fill="#ff593b"/><path d="m275.984 269.804h254.793v152.559h-254.793z" fill="url(#a)" opacity=".35"/></svg>